<svg xmlns="http://www.w3.org/2000/svg" viewBox="0 0 320 420" role="img" aria-labelledby="title">
  <title id="title">El Toro Salvaje</title>
  <defs>
    <radialGradient id="bg" cx=".5" cy=".32" r=".8">
      <stop stop-color="#b3361a"/><stop offset="1" stop-color="#1c0503"/>
    </radialGradient>
    <radialGradient id="vignette" cx=".5" cy=".42" r=".7">
      <stop offset=".6" stop-color="#000" stop-opacity="0"/><stop offset="1" stop-color="#000" stop-opacity=".55"/>
    </radialGradient>
    <radialGradient id="mask" cx=".36" cy=".3" r=".85">
      <stop stop-color="#6a2b24"/><stop offset=".6" stop-color="#2a0c09"/><stop offset="1" stop-color="#0c0302"/>
    </radialGradient>
    <radialGradient id="skin" cx=".35" cy=".3" r=".9">
      <stop stop-color="#c98a60"/><stop offset="1" stop-color="#7a4a2e"/>
    </radialGradient>
    <linearGradient id="suit" x1="0" y1="0" x2="1" y2="1">
      <stop stop-color="#8f1d12"/><stop offset="1" stop-color="#2b0704"/>
    </linearGradient>
    <linearGradient id="aura" x1="0" y1="1" x2="0" y2="0">
      <stop stop-color="#ff4d00"/><stop offset=".6" stop-color="#ffb000"/><stop offset="1" stop-color="#fff1a0"/>
    </linearGradient>
    <linearGradient id="bone" x1="0" y1="1" x2="0" y2="0">
      <stop stop-color="#cdbb94"/><stop offset="1" stop-color="#fffaf0"/>
    </linearGradient>
    <linearGradient id="feather" x1="1" y1="0" x2="0" y2="1">
      <stop stop-color="#ffffff"/><stop offset="1" stop-color="#9fb4cc"/>
    </linearGradient>
    <linearGradient id="curtain" x1="0" y1="0" x2="1" y2="0">
      <stop stop-color="#2a0636"/><stop offset=".6" stop-color="#6d1a86"/><stop offset="1" stop-color="#3a0a4a"/>
    </linearGradient>
    <pattern id="dots" width="9" height="9" patternUnits="userSpaceOnUse">
      <circle cx="4.5" cy="4.5" r="1.6" fill="#fff"/>
    </pattern>
    <clipPath id="headClip"><path d="M160 50C212 50 240 90 238 140C236 186 206 222 160 226C114 222 84 186 82 140C80 90 108 50 160 50Z"/></clipPath>
  </defs>
  <rect width="320" height="420" fill="url(#bg)"/><path d="M160 150L620 150L604 269ZM160 150L558 380L485 475ZM160 150L390 548L279 594ZM160 150L160 610L41 594ZM160 150L-70 548L-165 475ZM160 150L-238 380L-284 269ZM160 150L-300 150L-284 31ZM160 150L-238 -80L-165 -175ZM160 150L-70 -248L41 -294ZM160 150L160 -310L279 -294ZM160 150L390 -248L485 -175ZM160 150L558 -80L604 31Z" fill="#fff" opacity="0.07"/><rect width="320" height="420" fill="url(#dots)" opacity=".08"/><circle cx="40" cy="330" r="60" fill="#000" opacity=".22"/><circle cx="280" cy="340" r="70" fill="#000" opacity=".22"/><circle cx="70" cy="60" r="40" fill="#000" opacity=".22"/><circle cx="270" cy="70" r="46" fill="#000" opacity=".22"/><circle cx="160" cy="400" r="80" fill="#000" opacity=".22"/><rect width="320" height="420" fill="url(#vignette)"/><g><path d="M40 160C30 190 26 216 30 246L80 240C84 212 88 186 86 160Z" fill="url(#skin)" stroke="#120403" stroke-width="6" stroke-linejoin="round"/><path d="M36 148Q62 160 90 148L88 170Q62 182 38 170Z" fill="#ffd230" stroke="#120403" stroke-width="5" stroke-linejoin="round"/><rect x="32" y="96" width="58" height="54" rx="22" fill="url(#skin)" stroke="#120403" stroke-width="6"/><path d="M48 99V116M61 97V116M74 99V116M36 128Q58 140 80 126" fill="none" stroke="#120403" stroke-width="4" stroke-linecap="round"/><path d="M110 240C92 198 52 194 30 216C12 234 22 266 50 272C74 278 96 276 116 286Z" fill="url(#skin)" stroke="#120403" stroke-width="6" stroke-linejoin="round"/><path d="M42 214Q64 200 88 212" fill="none" stroke="#fff" stroke-opacity=".35" stroke-width="6" stroke-linecap="round"/><path d="M58 256Q76 262 96 256" fill="none" stroke="#120403" stroke-opacity=".35" stroke-width="4" stroke-linecap="round"/></g><g transform="translate(320 0) scale(-1 1)"><path d="M40 160C30 190 26 216 30 246L80 240C84 212 88 186 86 160Z" fill="url(#skin)" stroke="#120403" stroke-width="6" stroke-linejoin="round"/><path d="M36 148Q62 160 90 148L88 170Q62 182 38 170Z" fill="#ffd230" stroke="#120403" stroke-width="5" stroke-linejoin="round"/><rect x="32" y="96" width="58" height="54" rx="22" fill="url(#skin)" stroke="#120403" stroke-width="6"/><path d="M48 99V116M61 97V116M74 99V116M36 128Q58 140 80 126" fill="none" stroke="#120403" stroke-width="4" stroke-linecap="round"/><path d="M110 240C92 198 52 194 30 216C12 234 22 266 50 272C74 278 96 276 116 286Z" fill="url(#skin)" stroke="#120403" stroke-width="6" stroke-linejoin="round"/><path d="M42 214Q64 200 88 212" fill="none" stroke="#fff" stroke-opacity=".35" stroke-width="6" stroke-linecap="round"/><path d="M58 256Q76 262 96 256" fill="none" stroke="#120403" stroke-opacity=".35" stroke-width="4" stroke-linecap="round"/></g><path d="M88 250C94 234 124 226 160 226C196 226 226 234 232 250L248 420H72Z" fill="url(#suit)" stroke="#120403" stroke-width="7" stroke-linejoin="round"/><path d="M112 300Q136 320 160 306Q184 320 208 300" fill="none" stroke="#120403" stroke-opacity=".35" stroke-width="5" stroke-linecap="round"/><path d="M114 282Q118 322 160 326Q202 322 206 282Q188 304 160 304Q132 304 114 282Z" fill="#ffd230" stroke="#120403" stroke-width="5" stroke-linejoin="round"/><circle cx="160" cy="316" r="9" fill="none" stroke="#ffd230" stroke-width="4"/><g><ellipse cx="98" cy="258" rx="32" ry="28" fill="#2a0c09" stroke="#120403" stroke-width="6"/><path d="M72 246L60 222L86 238M92 232L90 206L106 230M112 234L122 212L124 238" fill="#2a0c09" stroke="#120403" stroke-width="5" stroke-linejoin="round"/><ellipse cx="88" cy="250" rx="12" ry="7" fill="#fff" opacity=".35"/></g><g transform="translate(320 0) scale(-1 1)"><ellipse cx="98" cy="258" rx="32" ry="28" fill="#2a0c09" stroke="#120403" stroke-width="6"/><path d="M72 246L60 222L86 238M92 232L90 206L106 230M112 234L122 212L124 238" fill="#2a0c09" stroke="#120403" stroke-width="5" stroke-linejoin="round"/><ellipse cx="88" cy="250" rx="12" ry="7" fill="#fff" opacity=".35"/></g><g><path d="M106 86C80 72 58 44 64 12C76 38 98 52 126 62Z" fill="url(#bone)" stroke="#120403" stroke-width="6" stroke-linejoin="round"/><path d="M72 36Q86 50 100 56M68 24Q78 34 90 40" stroke="#120403" stroke-opacity=".35" stroke-width="3" fill="none"/></g><g transform="translate(320 0) scale(-1 1)"><path d="M106 86C80 72 58 44 64 12C76 38 98 52 126 62Z" fill="url(#bone)" stroke="#120403" stroke-width="6" stroke-linejoin="round"/><path d="M72 36Q86 50 100 56M68 24Q78 34 90 40" stroke="#120403" stroke-opacity=".35" stroke-width="3" fill="none"/></g><path d="M120 238Q140 216 138 194H182Q180 216 200 238Q160 256 120 238Z" fill="url(#skin)" stroke="#120403" stroke-width="6" stroke-linejoin="round"/><path d="M136 212Q160 224 184 212" fill="none" stroke="#120403" stroke-opacity=".3" stroke-width="5"/><ellipse cx="160" cy="232" rx="60" ry="12" fill="#000" opacity=".25"/><path d="M160 50C212 50 240 90 238 140C236 186 206 222 160 226C114 222 84 186 82 140C80 90 108 50 160 50Z" fill="url(#mask)" stroke="#120403" stroke-width="7"/><g clip-path="url(#headClip)"><circle cx="236" cy="204" r="112" fill="#000" opacity=".22"/><ellipse cx="124" cy="84" rx="36" ry="17" transform="rotate(-28 124 84)" fill="#fff" opacity=".32"/></g><path d="M118 182Q160 168 202 182Q200 222 160 226Q120 222 118 182Z" fill="url(#skin)" stroke="#120403" stroke-width="6"/><path d="M150 172Q160 182 170 172" fill="none" stroke="#120403" stroke-opacity=".45" stroke-width="4" stroke-linecap="round"/><path d="M160 54V104" stroke="#120403" stroke-width="4"/><path d="M152 62L168 70M168 62L152 70M152 78L168 86M168 78L152 86M152 94L168 102M168 94L152 102" stroke="#ffd230" stroke-width="3" stroke-linecap="round"/><g><path d="M88 128Q120 104 152 116L154 150L142 142L134 156L124 144L114 158L106 144L92 150Z" fill="#e0261b" stroke="#120403" stroke-width="5" stroke-linejoin="round"/></g><g transform="translate(320 0) scale(-1 1)"><path d="M88 128Q120 104 152 116L154 150L142 142L134 156L124 144L114 158L106 144L92 150Z" fill="#e0261b" stroke="#120403" stroke-width="5" stroke-linejoin="round"/></g><g><path d="M106 140Q126 122 148 138Q128 154 106 140Z" fill="#fff" stroke="#120403" stroke-width="3"/><circle cx="130" cy="139" r="8" fill="#ff5a1a"/><circle cx="131" cy="139" r="4" fill="#120708"/><circle cx="134" cy="136" r="2.2" fill="#fff"/><path d="M100 124L150 136" fill="none" stroke="#120403" stroke-width="8" stroke-linecap="round"/></g><g transform="translate(320 0) scale(-1 1)"><path d="M106 140Q126 122 148 138Q128 154 106 140Z" fill="#fff" stroke="#120403" stroke-width="3"/><circle cx="130" cy="139" r="8" fill="#ff5a1a"/><circle cx="131" cy="139" r="4" fill="#120708"/><circle cx="134" cy="136" r="2.2" fill="#fff"/><path d="M100 124L150 136" fill="none" stroke="#120403" stroke-width="8" stroke-linecap="round"/></g><path d="M136 198Q160 188 184 198Q178 216 160 216Q142 216 136 198Z" fill="#6e1020" stroke="#120403" stroke-width="4" stroke-linejoin="round"/><path d="M140 199Q160 192 180 199L178 204Q160 199 142 204Z" fill="#fff"/><path d="M146 214L150 206L154 214M166 214L170 206L174 214" fill="#fff"/><circle cx="160" cy="184" r="10" fill="none" stroke="#ffd230" stroke-width="5"/><path d="M14 366L40 358V410L14 402L26 384Z" fill="#5e0f09" stroke="#120403" stroke-width="5" stroke-linejoin="round"/><path d="M306 366L280 358V410L306 402L294 384Z" fill="#5e0f09" stroke="#120403" stroke-width="5" stroke-linejoin="round"/><path d="M34 352Q160 340 286 352V404Q160 392 34 404Z" fill="#c7261a" stroke="#120403" stroke-width="6" stroke-linejoin="round"/><text x="160" y="390" fill="#fff" stroke="#120403" stroke-width="5" paint-order="stroke" stroke-linejoin="round" font-family="Impact, Anton, 'Arial Black', sans-serif" font-weight="900" font-size="30" letter-spacing="1" text-anchor="middle" textLength="236" lengthAdjust="spacingAndGlyphs">TORO SALVAJE</text>
</svg>
